<?xml version="1.0" encoding="UTF-8" standalone="no"?>
<svg
   xmlns:dc="http://purl.org/dc/elements/1.1/"
   xmlns:cc="http://creativecommons.org/ns#"
   xmlns:rdf="http://www.w3.org/1999/02/22-rdf-syntax-ns#"
   xmlns:svg="http://www.w3.org/2000/svg"
   xmlns="http://www.w3.org/2000/svg"
   xmlns:sodipodi="http://sodipodi.sourceforge.net/DTD/sodipodi-0.dtd"
   xmlns:inkscape="http://www.inkscape.org/namespaces/inkscape"
   data-name="Layer 1"
   viewBox="0 0 80.000076 80.000077"
   x="0px"
   y="0px"
   version="1.1"
   id="svg14"
   sodipodi:docname="icon.svg"
   width="80.000076"
   height="80.000076"
   inkscape:export-filename="/Users/corey/dev/tab-limit/icons/icon128.png"
   inkscape:export-xdpi="36"
   inkscape:export-ydpi="36"
   inkscape:version="0.92.2 5c3e80d, 2017-08-06">
  <metadata
     id="metadata20">
    <rdf:RDF>
      <cc:Work
         rdf:about="">
        <dc:format>image/svg+xml</dc:format>
        <dc:type
           rdf:resource="http://purl.org/dc/dcmitype/StillImage" />
        <dc:title>Artboard 13</dc:title>
      </cc:Work>
    </rdf:RDF>
  </metadata>
  <defs
     id="defs18" />
  <sodipodi:namedview
     pagecolor="#ffffff"
     bordercolor="#666666"
     borderopacity="1"
     objecttolerance="10"
     gridtolerance="10"
     guidetolerance="10"
     inkscape:pageopacity="0"
     inkscape:pageshadow="2"
     inkscape:window-width="1660"
     inkscape:window-height="1251"
     id="namedview16"
     showgrid="false"
     inkscape:pagecheckerboard="true"
     fit-margin-top="0"
     fit-margin-left="0"
     fit-margin-right="0"
     fit-margin-bottom="0"
     inkscape:zoom="7.552"
     inkscape:cx="53.607111"
     inkscape:cy="40.379356"
     inkscape:window-x="435"
     inkscape:window-y="57"
     inkscape:window-maximized="0"
     inkscape:current-layer="svg14" />
  <title
     id="title2">Artboard 13</title>
  <path
     d="M 59.530016,50.552538 V 8.9625381 a 3.08,3.08 0 0 0 -3.07,-3.08 H 3.0700163 a 3.07,3.07 0 0 0 -3.070000013312,3.08 V 50.552538 A 3.07,3.07 0 0 0 3.0700163,53.632538 H 56.460016 a 3.08,3.08 0 0 0 3.07,-3.08 z m -6.15,-3.08 H 6.1500163 v -35.51 H 53.380016 Z"
     id="path4"
     style="fill:#23326a;fill-opacity:1;stroke-width:1;stroke-miterlimit:4;stroke-dasharray:none"
     inkscape:connector-curvature="0" />
  <path
     d="m 76.920016,26.302538 a 3.09,3.09 0 0 0 -3.08,3.07 v 38.59 h -50.31 a 3.08,3.08 0 1 0 0,6.15 h 53.39 a 3.08,3.08 0 0 0 3.08,-3.1 v -41.64 a 3.09,3.09 0 0 0 -3.08,-3.07 z"
     id="path6"
     style="fill:#23326a;fill-opacity:1;stroke-width:1;stroke-miterlimit:4;stroke-dasharray:none"
     inkscape:connector-curvature="0" />
  <path
     d="m 66.680016,63.852538 a 3.08,3.08 0 0 0 3.09,-3.07 v -41.63 a 3.08,3.08 0 1 0 -6.16,0 v 38.55 h -50.31 a 3.08,3.08 0 0 0 0,6.15 z"
     id="path8"
     style="fill:#23326a;fill-opacity:1;stroke-width:1;stroke-miterlimit:4;stroke-dasharray:none"
     inkscape:connector-curvature="0" />
</svg>
