<?xml version="1.0" encoding="UTF-8" standalone="no"?>
<svg
   xmlns:dc="http://purl.org/dc/elements/1.1/"
   xmlns:cc="http://creativecommons.org/ns#"
   xmlns:rdf="http://www.w3.org/1999/02/22-rdf-syntax-ns#"
   xmlns:svg="http://www.w3.org/2000/svg"
   xmlns="http://www.w3.org/2000/svg"
   xmlns:sodipodi="http://sodipodi.sourceforge.net/DTD/sodipodi-0.dtd"
   xmlns:inkscape="http://www.inkscape.org/namespaces/inkscape"
   data-name="Layer 1"
   viewBox="0 0 100 100"
   x="0px"
   y="0px"
   version="1.1"
   id="svg16"
   sodipodi:docname="noun_1043489_cc.svg"
   width="100"
   height="100"
   inkscape:version="0.92.2 5c3e80d, 2017-08-06"
   inkscape:export-filename="/Users/corey/dev/tab-limit/icon/icon96.png"
   inkscape:export-xdpi="92.160004"
   inkscape:export-ydpi="92.160004">
  <metadata
     id="metadata22">
    <rdf:RDF>
      <cc:Work
         rdf:about="">
        <dc:format>image/svg+xml</dc:format>
        <dc:type
           rdf:resource="http://purl.org/dc/dcmitype/StillImage" />
        <dc:title>UPDATE</dc:title>
      </cc:Work>
    </rdf:RDF>
  </metadata>
  <defs
     id="defs20" />
  <sodipodi:namedview
     pagecolor="#ffffff"
     bordercolor="#666666"
     borderopacity="1"
     objecttolerance="10"
     gridtolerance="10"
     guidetolerance="10"
     inkscape:pageopacity="0"
     inkscape:pageshadow="2"
     inkscape:window-width="1024"
     inkscape:window-height="662"
     id="namedview18"
     showgrid="false"
     inkscape:zoom="1"
     inkscape:cx="113.60149"
     inkscape:cy="82.362001"
     inkscape:window-x="215"
     inkscape:window-y="63"
     inkscape:window-maximized="0"
     inkscape:current-layer="svg16" />
  <title
     id="title2">UPDATE</title>
  <path
     d="M 45.66,10.5 H 12.5 a 2,2 0 0 0 -2,2 v 33.16 a 2,2 0 0 0 2,2 h 33.16 a 2,2 0 0 0 2,-2 V 12.5 a 2,2 0 0 0 -2,-2 z m -2,33.16 H 14.5 V 14.5 h 29.16 z"
     id="path4"
     inkscape:connector-curvature="0" />
  <path
     d="M 87.5,10.5 H 54.34 a 2,2 0 0 0 -2,2 v 33.16 a 2,2 0 0 0 2,2 H 87.5 a 2,2 0 0 0 2,-2 V 12.5 a 2,2 0 0 0 -2,-2 z m -2,33.16 H 56.34 V 14.5 H 85.5 Z"
     id="path6"
     inkscape:connector-curvature="0" />
  <path
     d="M 45.66,52.34 H 12.5 a 2,2 0 0 0 -2,2 V 87.5 a 2,2 0 0 0 2,2 h 33.16 a 2,2 0 0 0 2,-2 V 54.34 a 2,2 0 0 0 -2,-2 z m -2,33.16 H 14.5 V 56.34 h 29.16 z"
     id="path8"
     inkscape:connector-curvature="0" />
  <path
     d="M 87.5,68.92 H 72.92 V 54.34 a 2,2 0 0 0 -4,0 V 68.92 H 54.34 a 2,2 0 0 0 0,4 H 68.92 V 87.5 a 2,2 0 0 0 4,0 V 72.92 H 87.5 a 2,2 0 0 0 0,-4 z"
     id="path10"
     inkscape:connector-curvature="0" />
</svg>
